<svg xmlns="http://www.w3.org/2000/svg" viewBox="0 0 1137.4518 266.7492"><rect x="0" y="0" width="1137.4518" height="266.7492" fill="transparent"/><defs><marker id="arrow-0" viewBox="0 0 10 10" refX="5" refY="5" markerUnits="userSpaceOnUse" markerWidth="8" markerHeight="8" orient="auto"><path d="M 0 0 L 10 5 L 0 10 z" fill="#ad9ba6" stroke="#ad9ba6" stroke-width="1" stroke-dasharray="1,0"/></marker><marker id="arrow-start-0" viewBox="0 0 10 10" refX="4.5" refY="5" markerUnits="userSpaceOnUse" markerWidth="8" markerHeight="8" orient="auto"><path d="M 0 5 L 10 10 L 10 0 z" fill="#ad9ba6" stroke="#ad9ba6" stroke-width="1" stroke-dasharray="1,0"/></marker><marker id="arrow-1" viewBox="0 0 10 10" refX="5" refY="5" markerUnits="userSpaceOnUse" markerWidth="8" markerHeight="8" orient="auto"><path d="M 0 0 L 10 5 L 0 10 z" fill="#22c55e" stroke="#22c55e" stroke-width="1" stroke-dasharray="1,0"/></marker><marker id="arrow-start-1" viewBox="0 0 10 10" refX="4.5" refY="5" markerUnits="userSpaceOnUse" markerWidth="8" markerHeight="8" orient="auto"><path d="M 0 5 L 10 10 L 10 0 z" fill="#22c55e" stroke="#22c55e" stroke-width="1" stroke-dasharray="1,0"/></marker><marker id="arrow-2" viewBox="0 0 10 10" refX="5" refY="5" markerUnits="userSpaceOnUse" markerWidth="8" markerHeight="8" orient="auto"><path d="M 0 0 L 10 5 L 0 10 z" fill="#3b82f6" stroke="#3b82f6" stroke-width="1" stroke-dasharray="1,0"/></marker><marker id="arrow-start-2" viewBox="0 0 10 10" refX="4.5" refY="5" markerUnits="userSpaceOnUse" markerWidth="8" markerHeight="8" orient="auto"><path d="M 0 5 L 10 10 L 10 0 z" fill="#3b82f6" stroke="#3b82f6" stroke-width="1" stroke-dasharray="1,0"/></marker></defs><rect x="8.00" y="8.00" width="440.61" height="234.80" rx="10" ry="10" fill="#1a1218" stroke="#3d2d36" stroke-width="1" /><text x="228.31" y="35.50" text-anchor="middle" font-family="Inter,ui-sans-serif,system-ui,-apple-system,Segoe UI,sans-serif" font-size="14" fill="#e9dde3"><tspan x="228.31" dy="0.00">Home VLAN 1</tspan></text><rect x="528.61" y="89.80" width="339.49" height="139.50" rx="10" ry="10" fill="#1a1218" stroke="#3d2d36" stroke-width="1" /><text x="698.36" y="117.30" text-anchor="middle" font-family="Inter,ui-sans-serif,system-ui,-apple-system,Segoe UI,sans-serif" font-size="14" fill="#e9dde3"><tspan x="698.36" dy="0.00">Tailscale Exit Path</tspan></text><rect x="948.10" y="119.80" width="181.35" height="93.00" rx="10" ry="10" fill="#1a1218" stroke="#3d2d36" stroke-width="1" /><path id="edge-0" class="edgePath" data-edge-id="edge-0" d="M 94.337,99.500 L 94.337,113.953 L 111.848,126.342 L 111.848,140.795" fill="none" stroke="#ad9ba6" stroke-width="2"    stroke-linecap="round" stroke-linejoin="round" /><path id="edge-1" class="edgePath" data-edge-id="edge-1" d="M 181.970,74.000 L 167.517,74.000 L 190.150,156.005 L 175.696,156.005" fill="none" stroke="#ad9ba6" stroke-width="2"    stroke-linecap="round" stroke-linejoin="round" /><path id="edge-2" class="edgePath" data-edge-id="edge-2" d="M 315.940,74.000 L 300.157,74.000 L 300.157,167.226 L 175.696,167.226" fill="none" stroke="#ad9ba6" stroke-width="2"    stroke-linecap="round" stroke-linejoin="round" /><path id="edge-3" class="edgePath" data-edge-id="edge-3" d="M 175.696,189.667 L 190.150,189.667 L 190.150,258.749 L 976.102,258.749 L 976.102,182.296" fill="none" stroke="#22c55e" stroke-width="2"    stroke-linecap="round" stroke-linejoin="round" /><rect data-edge-id="edge-3" data-label-kind="center" x="490.48" y="171.78" width="167.71" height="28.40" rx="2" ry="2" fill="#1a1218" fill-opacity="0.00" stroke="#3d2d36" stroke-opacity="0.00" stroke-width="0.8"/><g class="edgeLabel" data-edge-id="edge-3" data-label-kind="center"><text x="574.34" y="189.48" text-anchor="middle" font-family="Inter,ui-sans-serif,system-ui,-apple-system,Segoe UI,sans-serif" font-size="14" fill="#e9dde3"><tspan x="574.34" dy="0.00">Before our change</tspan></text></g><path id="edge-4" class="edgePath" data-edge-id="edge-4" d="M 681.795,166.296 L 723.090,166.296" fill="none" stroke="#3b82f6" stroke-width="2"    stroke-linecap="round" stroke-linejoin="round" /><path id="edge-5" class="edgePath" data-edge-id="edge-5" d="M 175.696,178.447 L 199.234,178.447 L 199.234,166.296 L 283.796,150.171 L 458.166,150.171 L 564.614,166.296" fill="none" stroke="#3b82f6" stroke-width="2"    stroke-linecap="round" stroke-linejoin="round" /><rect data-edge-id="edge-5" data-label-kind="center" x="291.80" y="158.17" width="158.37" height="28.40" rx="2" ry="2" fill="#1a1218" fill-opacity="0.00" stroke="#3d2d36" stroke-opacity="0.00" stroke-width="0.8"/><g class="edgeLabel" data-edge-id="edge-5" data-label-kind="center"><text x="370.98" y="175.87" text-anchor="middle" font-family="Inter,ui-sans-serif,system-ui,-apple-system,Segoe UI,sans-serif" font-size="14" fill="#e9dde3"><tspan x="370.98" dy="0.00">After our change</tspan></text></g><path id="edge-6" class="edgePath" data-edge-id="edge-6" d="M 832.102,166.296 L 976.102,166.296" fill="none" stroke="#3b82f6" stroke-width="2"    stroke-linecap="round" stroke-linejoin="round" /><rect x="723.09" y="130.30" width="109.01" height="72.00" rx="3" ry="3" fill="#211720" stroke="#3d2d36" stroke-width="1" stroke-linejoin="round" stroke-linecap="round"/><text x="777.60" y="159.30" text-anchor="middle" font-family="Inter,ui-sans-serif,system-ui,-apple-system,Segoe UI,sans-serif" font-size="14" fill="#e9dde3"><tspan x="777.60" dy="0.00">Colo</tspan><tspan x="777.60" dy="21.00">Server</tspan></text><rect x="48.00" y="140.80" width="127.70" height="72.00" rx="3" ry="3" fill="#211720" stroke="#3d2d36" stroke-width="1" stroke-linejoin="round" stroke-linecap="round"/><text x="111.85" y="169.80" text-anchor="middle" font-family="Inter,ui-sans-serif,system-ui,-apple-system,Segoe UI,sans-serif" font-size="14" fill="#e9dde3"><tspan x="111.85" dy="0.00">OPNsense</tspan><tspan x="111.85" dy="21.00">Firewall</tspan></text><rect x="48.00" y="48.50" width="92.67" height="51.00" rx="3" ry="3" fill="#211720" stroke="#3d2d36" stroke-width="1" stroke-linejoin="round" stroke-linecap="round"/><text x="94.34" y="77.50" text-anchor="middle" font-family="Inter,ui-sans-serif,system-ui,-apple-system,Segoe UI,sans-serif" font-size="14" fill="#e9dde3"><tspan x="94.34" dy="0.00">Host</tspan></text><rect x="181.97" y="48.50" width="92.67" height="51.00" rx="3" ry="3" fill="#211720" stroke="#3d2d36" stroke-width="1" stroke-linejoin="round" stroke-linecap="round"/><text x="228.31" y="77.50" text-anchor="middle" font-family="Inter,ui-sans-serif,system-ui,-apple-system,Segoe UI,sans-serif" font-size="14" fill="#e9dde3"><tspan x="228.31" dy="0.00">Host</tspan></text><rect x="315.94" y="48.50" width="92.67" height="51.00" rx="3" ry="3" fill="#211720" stroke="#3d2d36" stroke-width="1" stroke-linejoin="round" stroke-linecap="round"/><text x="362.28" y="77.50" text-anchor="middle" font-family="Inter,ui-sans-serif,system-ui,-apple-system,Segoe UI,sans-serif" font-size="14" fill="#e9dde3"><tspan x="362.28" dy="0.00">Host</tspan></text><rect x="976.10" y="140.80" width="125.35" height="51.00" rx="3" ry="3" fill="#211720" stroke="#3d2d36" stroke-width="1" stroke-linejoin="round" stroke-linecap="round"/><text x="1038.78" y="169.80" text-anchor="middle" font-family="Inter,ui-sans-serif,system-ui,-apple-system,Segoe UI,sans-serif" font-size="14" fill="#e9dde3"><tspan x="1038.78" dy="0.00">Internet</tspan></text><rect x="564.61" y="140.80" width="117.18" height="51.00" rx="3" ry="3" fill="#211720" stroke="#3d2d36" stroke-width="1" stroke-linejoin="round" stroke-linecap="round"/><text x="623.20" y="169.80" text-anchor="middle" font-family="Inter,ui-sans-serif,system-ui,-apple-system,Segoe UI,sans-serif" font-size="14" fill="#e9dde3"><tspan x="623.20" dy="0.00">Tailnet</tspan></text><g transform="translate(111.85 140.80) rotate(90.00)"><polygon points="0,0 -10.40,6.24 -10.40,-6.24" fill="#ad9ba6" stroke="#ad9ba6" stroke-width="2" stroke-linejoin="round" stroke-linecap="round"/></g><g transform="translate(175.70 156.01) rotate(180.00)"><polygon points="0,0 -10.40,6.24 -10.40,-6.24" fill="#ad9ba6" stroke="#ad9ba6" stroke-width="2" stroke-linejoin="round" stroke-linecap="round"/></g><g transform="translate(175.70 167.23) rotate(180.00)"><polygon points="0,0 -10.40,6.24 -10.40,-6.24" fill="#ad9ba6" stroke="#ad9ba6" stroke-width="2" stroke-linejoin="round" stroke-linecap="round"/></g><g transform="translate(976.10 182.30) rotate(-90.00)"><polygon points="0,0 -10.40,6.24 -10.40,-6.24" fill="#22c55e" stroke="#22c55e" stroke-width="2" stroke-linejoin="round" stroke-linecap="round"/></g><g transform="translate(723.09 166.30) rotate(0.00)"><polygon points="0,0 -10.40,6.24 -10.40,-6.24" fill="#3b82f6" stroke="#3b82f6" stroke-width="2" stroke-linejoin="round" stroke-linecap="round"/></g><g transform="translate(564.61 166.30) rotate(8.61)"><polygon points="0,0 -10.40,6.24 -10.40,-6.24" fill="#3b82f6" stroke="#3b82f6" stroke-width="2" stroke-linejoin="round" stroke-linecap="round"/></g><g transform="translate(976.10 166.30) rotate(0.00)"><polygon points="0,0 -10.40,6.24 -10.40,-6.24" fill="#3b82f6" stroke="#3b82f6" stroke-width="2" stroke-linejoin="round" stroke-linecap="round"/></g></svg>